g CircleXY
v 0.491131991 -0.0976916552 0
v 0.50075382 6.17423098E-07 0
v 0.491131812 0.0976928771 0
v 0.462636322 -0.191629678 0
v 0.462635934 0.19163084 0
v 0.416361719 -0.278203517 0
v 0.416361183 0.27820459 0
v 0.354086608 -0.354086071 0
v 0.354085922 0.354087025 0
v 0.278204113 -0.416361302 0
v 0.278203309 0.416362077 0
v 0.191630378 -0.462635964 0
v 0.191629484 0.46263662 0
v 0.0976923928 -0.491131812 0
v 0.0976914316 0.49113223 0
v 1.25304425E-07 -0.500753641 0
v -3.78618843E-08 0.50075388 0
v -0.0976921394 -0.491131872 0
v -0.0976922587 0.49113211 0
v -0.19163014 -0.462636143 0
v -0.191630229 0.462636322 0
v -0.278203964 -0.416361481 0
v -0.278203994 0.416361719 0
v -0.354086488 -0.35408631 0
v -0.354086488 0.354086548 0
v -0.41636166 -0.278203756 0
v -0.41636166 0.278204054 0
v -0.462636292 -0.191629976 0
v -0.462636262 0.191630319 0
v -0.491132021 0.0976923704 0
v -0.491132051 -0.0976920277 0
v -0.50075382 1.71701487E-07 0
vt 0.98068887 0.354184359
vt 0.999899805 0.45076412
vt 0.999899805 0.549235702
vt 0.943005323 0.263208151
vt 0.98068887 0.645815611
vt 0.888296723 0.181331351
vt 0.943005681 0.736791193
vt 0.818667531 0.111702301
vt 0.888297439 0.81866771
vt 0.736790895 0.0569941513
vt 0.818667412 0.888297737
vt 0.645815551 0.0193109512
vt 0.736790776 0.9430058
vt 0.549236 0.00010003979
vt 0.645813942 0.980689347
vt 0.450763732 9.99799959E-05
vt 0.549236178 0.999899745
vt 0.354184061 0.019310981
vt 0.450765848 0.999899983
vt 0.263207883 0.0569946319
vt 0.354185283 0.980689228
vt 0.181331351 0.111702964
vt 0.263208985 0.9430058
vt 0.111701883 0.181332663
vt 0.181332424 0.888297737
vt 0.0569943301 0.26320833
vt 0.111702807 0.818668425
vt 0.0193106234 0.354184926
vt 0.0569946319 0.736792028
vt 0.0193110425 0.645816028
vt 9.99799959E-05 0.450763583
vt 9.99799959E-05 0.549236357
vn -0 0 -1
vn -0 0 -1
vn -0 0 -1
vn -0 0 -1
vn -0 0 -1
vn -0 0 -1
vn -0 0 -1
vn -0 0 -1
vn -0 0 -1
vn -0 0 -1
vn -0 0 -1
vn -0 0 -1
vn -0 0 -1
vn -0 0 -1
vn -0 0 -1
vn -0 0 -1
vn -0 0 -1
vn -0 0 -1
vn -0 0 -1
vn -0 0 -1
vn -0 0 -1
vn -0 0 -1
vn -0 0 -1
vn -0 0 -1
vn -0 0 -1
vn -0 0 -1
vn -0 0 -1
vn -0 0 -1
vn -0 0 -1
vn -0 0 -1
vn -0 0 -1
vn -0 0 -1
g CircleXY_0
f 3/3/3 2/2/2 1/1/1
f 1/1/1 4/4/4 3/3/3
f 4/4/4 5/5/5 3/3/3
f 4/4/4 6/6/6 5/5/5
f 6/6/6 7/7/7 5/5/5
f 6/6/6 8/8/8 7/7/7
f 8/8/8 9/9/9 7/7/7
f 8/8/8 10/10/10 9/9/9
f 10/10/10 11/11/11 9/9/9
f 10/10/10 12/12/12 11/11/11
f 12/12/12 13/13/13 11/11/11
f 12/12/12 14/14/14 13/13/13
f 14/14/14 15/15/15 13/13/13
f 14/14/14 16/16/16 15/15/15
f 16/16/16 17/17/17 15/15/15
f 16/16/16 18/18/18 17/17/17
f 18/18/18 19/19/19 17/17/17
f 18/18/18 20/20/20 19/19/19
f 20/20/20 21/21/21 19/19/19
f 20/20/20 22/22/22 21/21/21
f 22/22/22 23/23/23 21/21/21
f 22/22/22 24/24/24 23/23/23
f 24/24/24 25/25/25 23/23/23
f 24/24/24 26/26/26 25/25/25
f 26/26/26 27/27/27 25/25/25
f 26/26/26 28/28/28 27/27/27
f 28/28/28 29/29/29 27/27/27
f 28/28/28 30/30/30 29/29/29
f 28/28/28 31/31/31 30/30/30
f 31/31/31 32/32/32 30/30/30
