g CubeMesh
v 0.50000006 -0.499997944 0.500001729
v 0.499999881 -0.500001729 -0.499997973
v -0.49999854 -0.500000715 -0.499997884
v -0.499999374 -0.499997109 0.500001967
v 0.5 0.500001907 0.499997705
v 0.499999851 0.499997765 -0.500001967
v 0.499999881 -0.500001729 -0.499997973
v 0.50000006 -0.499997944 0.500001729
v -0.499999881 0.500001907 0.499998033
v 0.5 0.500001907 0.499997705
v 0.50000006 -0.499997944 0.500001729
v -0.499999374 -0.499997109 0.500001967
v -0.50000006 0.499997944 -0.500001788
v 0.499999851 0.499997765 -0.500001967
v 0.5 0.500001907 0.499997705
v -0.499999881 0.500001907 0.499998033
v -0.50000006 0.499997944 -0.500001788
v -0.499999881 0.500001907 0.499998033
v -0.499999374 -0.499997109 0.500001967
v -0.49999854 -0.500000715 -0.499997884
v 0.499999851 0.499997765 -0.500001967
v -0.50000006 0.499997944 -0.500001788
v -0.49999854 -0.500000715 -0.499997884
v 0.499999881 -0.500001729 -0.499997973
vt 0.176162183 0.839724541
vt 0.176162183 0.911700845
vt 0.248408526 0.911700845
vt 0.248408526 0.839724541
vt 0.00538137555 0.835028768
vt 0.0821063742 0.835028768
vt 0.0821063742 0.914997578
vt 0.00538137555 0.914997578
vt 0.42848435 0.907972097
vt 0.492956191 0.907972097
vt 0.492956191 0.843500197
vt 0.42848435 0.843500197
vt 0.424524128 0.919694364
vt 0.42636463 0.988512754
vt 0.49451378 0.988847375
vt 0.49451378 0.920028985
vt 0.345155895 0.988167346
vt 0.415145516 0.988501966
vt 0.415145516 0.919683635
vt 0.346327126 0.919683635
vt 0.42848435 0.907972097
vt 0.492956191 0.907972097
vt 0.492956191 0.843500197
vt 0.42848435 0.843500197
vn -0 -1 0
vn -0 -1 0
vn -0 -1 0
vn -0 -1 0
vn 1 0 0
vn 1 0 0
vn 1 0 0
vn 1 0 0
vn -0 0 1
vn -0 0 1
vn -0 0 1
vn -0 0 1
vn -0 1 0
vn -0 1 0
vn -0 1 0
vn -0 1 0
vn -1 0 0
vn -1 0 0
vn -1 0 0
vn -1 0 0
vn -0 0 -1
vn -0 0 -1
vn -0 0 -1
vn -0 0 -1
g CubeMesh_0
f 3/3/3 2/2/2 1/1/1
f 4/4/4 3/3/3 1/1/1
f 7/7/7 6/6/6 5/5/5
f 8/8/8 7/7/7 5/5/5
f 11/11/11 10/10/10 9/9/9
f 12/12/12 11/11/11 9/9/9
f 15/15/15 14/14/14 13/13/13
f 16/16/16 15/15/15 13/13/13
f 19/19/19 18/18/18 17/17/17
f 20/20/20 19/19/19 17/17/17
f 23/23/23 22/22/22 21/21/21
f 24/24/24 23/23/23 21/21/21
