g Cylinder
v -0 0.5 0
v 0.0975451618 0.490392596 0
v 0.0975451618 0.490392596 1
v -0 0.5 1
v 0.0975451618 0.490392596 0
v 0.191341713 0.461939722 0
v 0.191341713 0.461939722 1
v 0.0975451618 0.490392596 1
v 0.191341713 0.461939722 0
v 0.277785122 0.415734768 0
v 0.277785122 0.415734768 1
v 0.191341713 0.461939722 1
v 0.277785122 0.415734768 0
v 0.353553385 0.353553385 0
v 0.353553385 0.353553385 1
v 0.277785122 0.415734768 1
v 0.353553385 0.353553385 0
v 0.415734828 0.277785093 0
v 0.415734828 0.277785093 1
v 0.353553385 0.353553385 1
v 0.415734828 0.277785093 0
v 0.461939722 0.191341698 0
v 0.461939722 0.191341698 1
v 0.415734828 0.277785093 1
v 0.461939722 0.191341698 0
v 0.490392596 0.0975451767 0
v 0.490392596 0.0975451767 1
v 0.461939722 0.191341698 1
v 0.490392596 0.0975451767 0
v 0.5 3.77489506E-08 0
v 0.5 3.77489506E-08 1
v 0.490392596 0.0975451767 1
v 0.5 3.77489506E-08 0
v 0.490392625 -0.0975450948 0
v 0.490392625 -0.0975450948 1
v 0.5 3.77489506E-08 1
v 0.490392625 -0.0975450948 0
v 0.461939752 -0.191341624 0
v 0.461939752 -0.191341624 1
v 0.490392625 -0.0975450948 1
v 0.461939752 -0.191341624 0
v 0.415734828 -0.277785093 0
v 0.415734828 -0.277785093 1
v 0.461939752 -0.191341624 1
v 0.415734828 -0.277785093 0
v 0.353553385 -0.353553385 0
v 0.353553385 -0.353553385 1
v 0.415734828 -0.277785093 1
v 0.353553385 -0.353553385 0
v 0.277785093 -0.415734828 0
v 0.277785093 -0.415734828 1
v 0.353553385 -0.353553385 1
v 0.277785093 -0.415734828 0
v 0.191341624 -0.461939812 0
v 0.191341624 -0.461939812 1
v 0.277785093 -0.415734828 1
v 0.191341624 -0.461939812 0
v 0.0975450426 -0.490392625 0
v 0.0975450426 -0.490392625 1
v 0.191341624 -0.461939812 1
v 0.0975450426 -0.490392625 0
v -1.62920671E-07 -0.5 0
v -1.62920671E-07 -0.5 1
v 0.0975450426 -0.490392625 1
v -1.62920671E-07 -0.5 0
v -0.097545363 -0.490392596 0
v -0.097545363 -0.490392596 1
v -1.62920671E-07 -0.5 1
v -0.097545363 -0.490392596 0
v -0.191341937 -0.461939663 0
v -0.191341937 -0.461939663 1
v -0.097545363 -0.490392596 1
v -0.191341937 -0.461939663 0
v -0.277785361 -0.415734619 0
v -0.277785361 -0.415734619 1
v -0.191341937 -0.461939663 1
v -0.277785361 -0.415734619 0
v -0.353553623 -0.353553146 0
v -0.353553623 -0.353553146 1
v -0.277785361 -0.415734619 1
v -0.353553623 -0.353553146 0
v -0.415735006 -0.277784824 0
v -0.415735006 -0.277784824 1
v -0.353553623 -0.353553146 1
v -0.415735006 -0.277784824 0
v -0.461939901 -0.191341341 0
v -0.461939901 -0.191341341 1
v -0.415735006 -0.277784824 1
v -0.461939901 -0.191341341 0
v -0.490392715 -0.0975447223 0
v -0.490392715 -0.0975447223 1
v -0.461939901 -0.191341341 1
v -0.490392715 -0.0975447223 0
v -0.5 4.82799578E-07 0
v -0.5 4.82799578E-07 1
v -0.490392715 -0.0975447223 1
v -0.5 4.82799578E-07 0
v -0.490392536 0.0975456685 0
v -0.490392536 0.0975456685 1
v -0.5 4.82799578E-07 1
v -0.490392536 0.0975456685 0
v -0.461939543 0.191342235 0
v -0.461939543 0.191342235 1
v -0.490392536 0.0975456685 1
v -0.461939543 0.191342235 0
v -0.41573447 0.277785629 0
v -0.41573447 0.277785629 1
v -0.461939543 0.191342235 1
v -0.41573447 0.277785629 0
v -0.353552938 0.353553832 0
v -0.353552938 0.353553832 1
v -0.41573447 0.277785629 1
v -0.353552938 0.353553832 0
v -0.277784556 0.415735155 0
v -0.277784556 0.415735155 1
v -0.353552938 0.353553832 1
v -0.277784556 0.415735155 0
v -0.191341028 0.46194002 0
v -0.191341028 0.46194002 1
v -0.277784556 0.415735155 1
v 0.490392596 0.0975451767 1
v 0.5 3.77489506E-08 1
v 0.490392625 -0.0975450948 1
v 0.461939752 -0.191341624 1
v 0.461939722 0.191341698 1
v 0.415734828 -0.277785093 1
v 0.415734828 0.277785093 1
v 0.353553385 0.353553385 1
v 0.353553385 -0.353553385 1
v 0.277785122 0.415734768 1
v 0.277785093 -0.415734828 1
v 0.191341713 0.461939722 1
v 0.191341624 -0.461939812 1
v 0.0975451618 0.490392596 1
v 0.0975450426 -0.490392625 1
v -0 0.5 1
v -1.62920671E-07 -0.5 1
v -0.0975444093 0.490392745 1
v -0.097545363 -0.490392596 1
v -0.191341028 0.46194002 1
v -0.191341937 -0.461939663 1
v -0.277784556 0.415735155 1
v -0.277785361 -0.415734619 1
v -0.353552938 0.353553832 1
v -0.353553623 -0.353553146 1
v -0.41573447 0.277785629 1
v -0.415735006 -0.277784824 1
v -0.461939543 0.191342235 1
v -0.461939901 -0.191341341 1
v -0.490392536 0.0975456685 1
v -0.490392715 -0.0975447223 1
v -0.5 4.82799578E-07 1
v -0.191341028 0.46194002 0
v -0.0975444093 0.490392745 0
v -0.0975444093 0.490392745 1
v -0.191341028 0.46194002 1
v -0.0975444093 0.490392745 0
v -0 0.5 0
v -0 0.5 1
v -0.0975444093 0.490392745 1
v 0.490392625 -0.0975450948 0
v 0.5 3.77489506E-08 0
v 0.490392596 0.0975451767 0
v 0.461939752 -0.191341624 0
v 0.461939722 0.191341698 0
v 0.415734828 -0.277785093 0
v 0.415734828 0.277785093 0
v 0.353553385 -0.353553385 0
v 0.353553385 0.353553385 0
v 0.277785093 -0.415734828 0
v 0.277785122 0.415734768 0
v 0.191341713 0.461939722 0
v 0.191341624 -0.461939812 0
v 0.0975451618 0.490392596 0
v 0.0975450426 -0.490392625 0
v -0 0.5 0
v -1.62920671E-07 -0.5 0
v -0.0975444093 0.490392745 0
v -0.097545363 -0.490392596 0
v -0.191341028 0.46194002 0
v -0.191341937 -0.461939663 0
v -0.277784556 0.415735155 0
v -0.277785361 -0.415734619 0
v -0.353552938 0.353553832 0
v -0.353553623 -0.353553146 0
v -0.41573447 0.277785629 0
v -0.415735006 -0.277784824 0
v -0.461939543 0.191342235 0
v -0.461939901 -0.191341341 0
v -0.490392536 0.0975456685 0
v -0.490392715 -0.0975447223 0
v -0.5 4.82799578E-07 0
vn 0.0980174541 0.99518472 0
vn 0.0980174541 0.99518472 0
vn 0.0980174541 0.99518472 0
vn 0.0980174541 0.99518472 0
vn 0.290284693 0.956940353 0
vn 0.290284693 0.956940353 0
vn 0.290284693 0.956940353 0
vn 0.290284693 0.956940353 0
vn 0.471396595 0.881921291 0
vn 0.471396595 0.881921291 0
vn 0.471396595 0.881921291 0
vn 0.471396595 0.881921291 0
vn 0.634393215 0.773010492 0
vn 0.634393215 0.773010492 0
vn 0.634393215 0.773010492 0
vn 0.634393215 0.773010492 0
vn 0.773010492 0.634393156 0
vn 0.773010492 0.634393156 0
vn 0.773010492 0.634393156 0
vn 0.773010492 0.634393156 0
vn 0.881921411 0.471396565 0
vn 0.881921411 0.471396565 0
vn 0.881921411 0.471396565 0
vn 0.881921411 0.471396565 0
vn 0.956940234 0.290284812 0
vn 0.956940234 0.290284812 0
vn 0.956940234 0.290284812 0
vn 0.956940234 0.290284812 0
vn 0.99518472 0.0980172977 0
vn 0.99518472 0.0980172977 0
vn 0.99518472 0.0980172977 0
vn 0.99518472 0.0980172977 0
vn 0.99518472 -0.0980172977 0
vn 0.99518472 -0.0980172977 0
vn 0.99518472 -0.0980172977 0
vn 0.99518472 -0.0980172977 0
vn 0.956940472 -0.290284395 0
vn 0.956940472 -0.290284395 0
vn 0.956940472 -0.290284395 0
vn 0.956940472 -0.290284395 0
vn 0.881921291 -0.471396595 0
vn 0.881921291 -0.471396595 0
vn 0.881921291 -0.471396595 0
vn 0.881921291 -0.471396595 0
vn 0.773010492 -0.634393156 0
vn 0.773010492 -0.634393156 0
vn 0.773010492 -0.634393156 0
vn 0.773010492 -0.634393156 0
vn 0.634393275 -0.773010492 0
vn 0.634393275 -0.773010492 0
vn 0.634393275 -0.773010492 0
vn 0.634393275 -0.773010492 0
vn 0.471396714 -0.881921291 0
vn 0.471396714 -0.881921291 0
vn 0.471396714 -0.881921291 0
vn 0.471396714 -0.881921291 0
vn 0.290284246 -0.956940472 0
vn 0.290284246 -0.956940472 0
vn 0.290284246 -0.956940472 0
vn 0.290284246 -0.956940472 0
vn 0.098017022 -0.99518472 0
vn 0.098017022 -0.99518472 0
vn 0.098017022 -0.99518472 0
vn 0.098017022 -0.99518472 0
vn -0.0980174243 -0.99518472 0
vn -0.0980174243 -0.99518472 0
vn -0.0980174243 -0.99518472 0
vn -0.0980174243 -0.99518472 0
vn -0.290285349 -0.956940114 0
vn -0.290285349 -0.956940114 0
vn -0.290285349 -0.956940114 0
vn -0.290285349 -0.956940114 0
vn -0.471397161 -0.881921053 0
vn -0.471397161 -0.881921053 0
vn -0.471397161 -0.881921053 0
vn -0.471397161 -0.881921053 0
vn -0.634393632 -0.773010135 0
vn -0.634393632 -0.773010135 0
vn -0.634393632 -0.773010135 0
vn -0.634393632 -0.773010135 0
vn -0.77301079 -0.634392917 0
vn -0.77301079 -0.634392917 0
vn -0.77301079 -0.634392917 0
vn -0.77301079 -0.634392917 0
vn -0.881921589 -0.471396178 0
vn -0.881921589 -0.471396178 0
vn -0.881921589 -0.471396178 0
vn -0.881921589 -0.471396178 0
vn -0.956940651 -0.29028365 0
vn -0.956940651 -0.29028365 0
vn -0.956940651 -0.29028365 0
vn -0.956940651 -0.29028365 0
vn -0.995184839 -0.0980162323 0
vn -0.995184839 -0.0980162323 0
vn -0.995184839 -0.0980162323 0
vn -0.995184839 -0.0980162323 0
vn -0.9951846 0.098018229 0
vn -0.9951846 0.098018229 0
vn -0.9951846 0.098018229 0
vn -0.9951846 0.098018229 0
vn -0.956939995 0.290285617 0
vn -0.956939995 0.290285617 0
vn -0.956939995 0.290285617 0
vn -0.956939995 0.290285617 0
vn -0.881920755 0.471397728 0
vn -0.881920755 0.471397728 0
vn -0.881920755 0.471397728 0
vn -0.881920755 0.471397728 0
vn -0.773009598 0.634394288 0
vn -0.773009598 0.634394288 0
vn -0.773009598 0.634394288 0
vn -0.773009598 0.634394288 0
vn -0.634392202 0.773011386 0
vn -0.634392202 0.773011386 0
vn -0.634392202 0.773011386 0
vn -0.634392202 0.773011386 0
vn -0.471395552 0.881921887 0
vn -0.471395552 0.881921887 0
vn -0.471395552 0.881921887 0
vn -0.471395552 0.881921887 0
vn -0 0 1
vn -0 0 1
vn -0 0 1
vn -0 0 1
vn -0 0 1
vn -0 0 1
vn -0 0 1
vn -0 0 1
vn -0 0 1
vn -0 0 1
vn -0 0 1
vn -0 0 1
vn -0 0 1
vn -0 0 1
vn -0 0 1
vn -0 0 1
vn -0 0 1
vn -0 0 1
vn -0 0 1
vn -0 0 1
vn -0 0 1
vn -0 0 1
vn -0 0 1
vn -0 0 1
vn -0 0 1
vn -0 0 1
vn -0 0 1
vn -0 0 1
vn -0 0 1
vn -0 0 1
vn -0 0 1
vn -0 0 1
vn -0.290283054 0.95694077 0
vn -0.290283054 0.95694077 0
vn -0.290283054 0.95694077 0
vn -0.290283054 0.95694077 0
vn -0.0980166569 0.995184839 0
vn -0.0980166569 0.995184839 0
vn -0.0980166569 0.995184839 0
vn -0.0980166569 0.995184839 0
vn -0 0 -1
vn -0 0 -1
vn -0 0 -1
vn -0 0 -1
vn -0 0 -1
vn -0 0 -1
vn -0 0 -1
vn -0 0 -1
vn -0 0 -1
vn -0 0 -1
vn -0 0 -1
vn -0 0 -1
vn -0 0 -1
vn -0 0 -1
vn -0 0 -1
vn -0 0 -1
vn -0 0 -1
vn -0 0 -1
vn -0 0 -1
vn -0 0 -1
vn -0 0 -1
vn -0 0 -1
vn -0 0 -1
vn -0 0 -1
vn -0 0 -1
vn -0 0 -1
vn -0 0 -1
vn -0 0 -1
vn -0 0 -1
vn -0 0 -1
vn -0 0 -1
vn -0 0 -1
g Cylinder_0
f 3/3/3 2/2/2 1/1/1
f 4/4/4 3/3/3 1/1/1
f 7/7/7 6/6/6 5/5/5
f 8/8/8 7/7/7 5/5/5
f 11/11/11 10/10/10 9/9/9
f 12/12/12 11/11/11 9/9/9
f 15/15/15 14/14/14 13/13/13
f 16/16/16 15/15/15 13/13/13
f 19/19/19 18/18/18 17/17/17
f 20/20/20 19/19/19 17/17/17
f 23/23/23 22/22/22 21/21/21
f 24/24/24 23/23/23 21/21/21
f 27/27/27 26/26/26 25/25/25
f 28/28/28 27/27/27 25/25/25
f 31/31/31 30/30/30 29/29/29
f 32/32/32 31/31/31 29/29/29
f 35/35/35 34/34/34 33/33/33
f 36/36/36 35/35/35 33/33/33
f 39/39/39 38/38/38 37/37/37
f 40/40/40 39/39/39 37/37/37
f 43/43/43 42/42/42 41/41/41
f 44/44/44 43/43/43 41/41/41
f 47/47/47 46/46/46 45/45/45
f 48/48/48 47/47/47 45/45/45
f 51/51/51 50/50/50 49/49/49
f 52/52/52 51/51/51 49/49/49
f 55/55/55 54/54/54 53/53/53
f 56/56/56 55/55/55 53/53/53
f 59/59/59 58/58/58 57/57/57
f 60/60/60 59/59/59 57/57/57
f 63/63/63 62/62/62 61/61/61
f 64/64/64 63/63/63 61/61/61
f 67/67/67 66/66/66 65/65/65
f 68/68/68 67/67/67 65/65/65
f 71/71/71 70/70/70 69/69/69
f 72/72/72 71/71/71 69/69/69
f 75/75/75 74/74/74 73/73/73
f 76/76/76 75/75/75 73/73/73
f 79/79/79 78/78/78 77/77/77
f 80/80/80 79/79/79 77/77/77
f 83/83/83 82/82/82 81/81/81
f 84/84/84 83/83/83 81/81/81
f 87/87/87 86/86/86 85/85/85
f 88/88/88 87/87/87 85/85/85
f 91/91/91 90/90/90 89/89/89
f 92/92/92 91/91/91 89/89/89
f 95/95/95 94/94/94 93/93/93
f 96/96/96 95/95/95 93/93/93
f 99/99/99 98/98/98 97/97/97
f 100/100/100 99/99/99 97/97/97
f 103/103/103 102/102/102 101/101/101
f 104/104/104 103/103/103 101/101/101
f 107/107/107 106/106/106 105/105/105
f 108/108/108 107/107/107 105/105/105
f 111/111/111 110/110/110 109/109/109
f 112/112/112 111/111/111 109/109/109
f 115/115/115 114/114/114 113/113/113
f 116/116/116 115/115/115 113/113/113
f 119/119/119 118/118/118 117/117/117
f 120/120/120 119/119/119 117/117/117
f 123/123/123 122/122/122 121/121/121
f 121/121/121 124/124/124 123/123/123
f 121/121/121 125/125/125 124/124/124
f 125/125/125 126/126/126 124/124/124
f 125/125/125 127/127/127 126/126/126
f 127/127/127 128/128/128 126/126/126
f 128/128/128 129/129/129 126/126/126
f 128/128/128 130/130/130 129/129/129
f 130/130/130 131/131/131 129/129/129
f 130/130/130 132/132/132 131/131/131
f 132/132/132 133/133/133 131/131/131
f 132/132/132 134/134/134 133/133/133
f 134/134/134 135/135/135 133/133/133
f 134/134/134 136/136/136 135/135/135
f 136/136/136 137/137/137 135/135/135
f 136/136/136 138/138/138 137/137/137
f 138/138/138 139/139/139 137/137/137
f 138/138/138 140/140/140 139/139/139
f 140/140/140 141/141/141 139/139/139
f 140/140/140 142/142/142 141/141/141
f 142/142/142 143/143/143 141/141/141
f 142/142/142 144/144/144 143/143/143
f 144/144/144 145/145/145 143/143/143
f 144/144/144 146/146/146 145/145/145
f 146/146/146 147/147/147 145/145/145
f 146/146/146 148/148/148 147/147/147
f 148/148/148 149/149/149 147/147/147
f 148/148/148 150/150/150 149/149/149
f 150/150/150 151/151/151 149/149/149
f 150/150/150 152/152/152 151/151/151
f 155/155/155 154/154/154 153/153/153
f 156/156/156 155/155/155 153/153/153
f 159/159/159 158/158/158 157/157/157
f 160/160/160 159/159/159 157/157/157
f 163/163/163 162/162/162 161/161/161
f 161/161/161 164/164/164 163/163/163
f 164/164/164 165/165/165 163/163/163
f 164/164/164 166/166/166 165/165/165
f 166/166/166 167/167/167 165/165/165
f 166/166/166 168/168/168 167/167/167
f 168/168/168 169/169/169 167/167/167
f 168/168/168 170/170/170 169/169/169
f 170/170/170 171/171/171 169/169/169
f 170/170/170 172/172/172 171/171/171
f 170/170/170 173/173/173 172/172/172
f 173/173/173 174/174/174 172/172/172
f 173/173/173 175/175/175 174/174/174
f 175/175/175 176/176/176 174/174/174
f 175/175/175 177/177/177 176/176/176
f 177/177/177 178/178/178 176/176/176
f 177/177/177 179/179/179 178/178/178
f 179/179/179 180/180/180 178/178/178
f 179/179/179 181/181/181 180/180/180
f 181/181/181 182/182/182 180/180/180
f 181/181/181 183/183/183 182/182/182
f 183/183/183 184/184/184 182/182/182
f 183/183/183 185/185/185 184/184/184
f 185/185/185 186/186/186 184/184/184
f 185/185/185 187/187/187 186/186/186
f 187/187/187 188/188/188 186/186/186
f 187/187/187 189/189/189 188/188/188
f 189/189/189 190/190/190 188/188/188
f 189/189/189 191/191/191 190/190/190
f 191/191/191 192/192/192 190/190/190
